<svg xmlns="http://www.w3.org/2000/svg" width="179" height="776" viewBox="0 0 179 776" fill="none">
<path d="M90.7827 6C87.0625 11.6303 80.7382 26.8468 85.2024 42.6708C90.7827 62.4508 93.7057 73.3409 85.2024 82.453C76.6991 91.5652 59.4268 107.567 85.2024 121.791C110.978 136.015 92.9085 136.237 94.2372 150.683C95.5658 165.129 116.027 214.246 114.433 233.137C112.838 252.028 132.768 288.032 125.062 306.034C117.356 324.036 113.104 364.929 102.209 373.597C91.3142 382.264 67.3986 384.265 73.7761 403.378C78.8781 418.669 59.7811 426.492 49.5948 428.492C36.3084 429.825 9.7887 436.271 10.0013 451.383C10.2139 466.496 27.0965 477.534 35.5112 481.164C42.5973 485.906 61.712 490.988 81.4822 473.386C106.195 451.383 129.313 490.499 93.1743 497.611C64.263 503.3 55.7951 528.577 55.1751 540.504C55.7066 546.431 60.1708 560.507 73.7761 569.397C85.091 573.306 105.331 575.192 95.7713 551.46C83.8217 521.795 124.185 516.046 128.168 533.753C132.151 551.46 103.472 552.61 143.038 560.198C182.605 567.787 168.531 589.633 155.519 591.473C142.507 593.312 97.8956 577.905 95.7713 596.992C93.6469 616.078 83.2906 639.304 71.6066 647.352C62.2594 653.791 54.7887 672.878 52.2217 681.616C51.1595 689.741 47.8137 706.635 42.9276 709.211C36.8201 712.43 15.842 716.57 36.0234 734.966C52.1686 749.684 46.1142 763.788 41.0688 769" stroke="url(#paint0_linear_80_26)" stroke-opacity="0.7" stroke-width="20"/>
<defs>
<linearGradient id="paint0_linear_80_26" x1="89.3363" y1="753.593" x2="89.3363" y2="5.99996" gradientUnits="userSpaceOnUse">
<stop stop-color="#788487"/>
<stop offset="1" stop-color="#C6EBE4"/>
</linearGradient>
</defs>
</svg>